<?xml version="1.0" encoding="UTF-8" standalone="no"?>
<!-- Created with Inkscape (http://www.inkscape.org/) -->

<svg
   xmlns:dc="http://purl.org/dc/elements/1.1/"
   xmlns:cc="http://creativecommons.org/ns#"
   xmlns:rdf="http://www.w3.org/1999/02/22-rdf-syntax-ns#"
   xmlns:svg="http://www.w3.org/2000/svg"
   xmlns="http://www.w3.org/2000/svg"
   xmlns:sodipodi="http://sodipodi.sourceforge.net/DTD/sodipodi-0.dtd"
   xmlns:inkscape="http://www.inkscape.org/namespaces/inkscape"
   version="1.1"
   id="svg5875"
   width="31.474792"
   height="25.121494"
   viewBox="0 0 31.474792 25.121494"
   sodipodi:docname="favicon.svg"
   inkscape:version="0.92.1 r15371"
   inkscape:export-filename="C:\Users\kg\Documents\NewCo\openmoduli-website\favicon.png"
   inkscape:export-xdpi="96"
   inkscape:export-ydpi="96">
  <metadata
     id="metadata5881">
    <rdf:RDF>
      <cc:Work
         rdf:about="">
        <dc:format>image/svg+xml</dc:format>
        <dc:type
           rdf:resource="http://purl.org/dc/dcmitype/StillImage" />
        <dc:title />
      </cc:Work>
    </rdf:RDF>
  </metadata>
  <defs
     id="defs5879" />
  <sodipodi:namedview
     pagecolor="#ffffff"
     bordercolor="#666666"
     borderopacity="1"
     objecttolerance="10"
     gridtolerance="10"
     guidetolerance="10"
     inkscape:pageopacity="0"
     inkscape:pageshadow="2"
     inkscape:window-width="2560"
     inkscape:window-height="1017"
     id="namedview5877"
     showgrid="false"
     inkscape:zoom="31.367561"
     inkscape:cx="15.737396"
     inkscape:cy="12.560747"
     inkscape:window-x="-8"
     inkscape:window-y="-8"
     inkscape:window-maximized="1"
     inkscape:current-layer="svg5875" />
  <path
     inkscape:connector-curvature="0"
     style="fill:#ff6600;stroke-width:0.35468727"
     d="M 9.5941511,0.0011201 A 13.041694,13.041694 0 0 0 5.9621602e-5,12.520931 13.041694,13.041694 0 0 0 9.5340097,25.121494 l 3.1997023,-4.56623 A 8.0256567,8.0256567 0 0 1 5.3013389,12.538192 8.0256567,8.0256567 0 0 1 12.784937,4.5550953 Z"
     id="path5712" />
  <path
     inkscape:connector-curvature="0"
     style="fill:#ff6600;stroke-width:0.35468727"
     d="m 21.941335,0 -3.199692,4.5667898 a 8.0256567,8.0256567 0 0 1 7.43236,8.0198492 8.0256567,8.0256567 0 0 1 -7.483596,7.97976 l 3.190787,4.554535 A 13.041694,13.041694 0 0 0 31.474733,12.600563 13.041694,13.041694 0 0 0 21.941335,0 Z"
     id="path5716" />
  <path
     style="fill:#ff6600;fill-opacity:1;stroke-width:0.15561229"
     d="m 7.8442934,11.805304 h 2.2828196 v 2.290613 H 7.8442934 Z"
     id="use6477"
     inkscape:connector-curvature="0" />
  <path
     style="fill:#ff6600;fill-opacity:1;stroke-width:0.1508833"
     d="m 14.486119,11.805304 h 2.213465 v 2.221002 h -2.213465 z"
     id="use6505"
     inkscape:connector-curvature="0" />
  <path
     style="fill:#ff6600;fill-opacity:1;stroke-width:0.1508833"
     d="m 21.131316,11.805304 h 2.213465 v 2.221002 h -2.213465 z"
     id="use6517"
     inkscape:connector-curvature="0" />
  <path
     style="opacity:1;fill:#ff6600;fill-opacity:1;stroke-width:0.0917226"
     d="M 12.281671,7.2380754 A 4.4550981,4.4550981 0 0 0 7.8345136,11.470336 h 2.2306244 a 2.2275492,2.2275492 0 0 1 2.216533,-2.0048756 2.2275492,2.2275492 0 0 1 2.213493,2.0010696 4.4550981,4.4550981 0 0 0 0,0.0038 h 9.79e-4 2.229851 a 2.2275492,2.2275492 0 0 1 2.21654,-2.0048746 2.2275492,2.2275492 0 0 1 2.214054,2.0048746 h 2.229873 a 4.4550981,4.4550981 0 0 0 -4.443923,-4.2322426 4.4550981,4.4550981 0 0 0 -3.330994,1.5077 4.4550981,4.4550981 0 0 0 -3.329463,-1.5077 z"
     id="path7732"
     inkscape:connector-curvature="0" />
  <path
     inkscape:connector-curvature="0"
     id="path7759"
     d="m 7.8442934,14.394828 h 2.2828196 v 2.290613 H 7.8442934 Z"
     style="fill:#ff6600;fill-opacity:1;stroke-width:0.15561229" />
  <path
     inkscape:connector-curvature="0"
     id="path7761"
     d="m 14.486119,14.394828 h 2.213465 v 2.221002 h -2.213465 z"
     style="fill:#ff6600;fill-opacity:1;stroke-width:0.1508833" />
  <path
     inkscape:connector-curvature="0"
     id="path7763"
     d="m 21.131316,14.394828 h 2.213465 v 2.221002 h -2.213465 z"
     style="fill:#ff6600;fill-opacity:1;stroke-width:0.1508833" />
</svg>
